<mxfile host="app.diagrams.net" modified="2023-11-02T14:43:24.580Z" agent="Mozilla/5.0 (Windows NT 10.0; Win64; x64) AppleWebKit/537.36 (KHTML, like Gecko) Chrome/118.0.0.0 Safari/537.36 Edg/118.0.2088.76" etag="2e-3wxrcOdkBPznwXgCZ" version="22.0.8" type="github">
  <diagram id="6a731a19-8d31-9384-78a2-239565b7b9f0" name="Page-1">
    <mxGraphModel dx="2037" dy="1911" grid="1" gridSize="10" guides="1" tooltips="1" connect="1" arrows="1" fold="1" page="1" pageScale="1" pageWidth="1169" pageHeight="827" background="none" math="0" shadow="0">
      <root>
        <mxCell id="0" />
        <mxCell id="1" parent="0" />
        <mxCell id="1746" value="" style="edgeStyle=none;rounded=0;jumpStyle=none;html=1;shadow=0;labelBackgroundColor=none;startArrow=none;startFill=0;endArrow=classic;endFill=1;jettySize=auto;orthogonalLoop=1;strokeColor=#2F5B7C;strokeWidth=3;fontFamily=Helvetica;fontSize=16;fontColor=#23445D;spacing=5;" parent="1" source="1749" target="1771" edge="1">
          <mxGeometry relative="1" as="geometry" />
        </mxCell>
        <mxCell id="XpKsgjcz_eqxMskUoxyx-1781" style="edgeStyle=orthogonalEdgeStyle;rounded=0;orthogonalLoop=1;jettySize=auto;html=1;entryX=1;entryY=0.5;entryDx=0;entryDy=0;dashed=1;fillColor=#e1d5e7;strokeColor=#9673a6;strokeWidth=3;" edge="1" parent="1" source="1749" target="1753">
          <mxGeometry relative="1" as="geometry" />
        </mxCell>
        <mxCell id="XpKsgjcz_eqxMskUoxyx-1786" value="" style="edgeStyle=orthogonalEdgeStyle;rounded=0;orthogonalLoop=1;jettySize=auto;html=1;" edge="1" parent="1" source="1749" target="XpKsgjcz_eqxMskUoxyx-1785">
          <mxGeometry relative="1" as="geometry" />
        </mxCell>
        <mxCell id="XpKsgjcz_eqxMskUoxyx-1831" value="" style="edgeStyle=orthogonalEdgeStyle;rounded=0;orthogonalLoop=1;jettySize=auto;html=1;" edge="1" parent="1" source="1749" target="XpKsgjcz_eqxMskUoxyx-1830">
          <mxGeometry relative="1" as="geometry" />
        </mxCell>
        <mxCell id="1749" value="Upload File" style="rounded=1;whiteSpace=wrap;html=1;shadow=0;labelBackgroundColor=none;strokeColor=#82b366;strokeWidth=3;fillColor=#d5e8d4;fontFamily=Helvetica;fontSize=16;align=center;fontStyle=1;spacing=5;arcSize=7;perimeterSpacing=2;" parent="1" vertex="1">
          <mxGeometry x="495" y="380.5" width="150" height="70" as="geometry" />
        </mxCell>
        <mxCell id="1753" value="Delete Event" style="rounded=1;whiteSpace=wrap;html=1;shadow=0;labelBackgroundColor=none;strokeColor=#d6b656;strokeWidth=3;fillColor=#fff2cc;fontFamily=Helvetica;fontSize=14;align=center;spacing=5;fontStyle=1;arcSize=7;perimeterSpacing=2;" parent="1" vertex="1">
          <mxGeometry x="215" y="385.5" width="150" height="60" as="geometry" />
        </mxCell>
        <mxCell id="1760" value="Set ExpireDate Event" style="rounded=1;whiteSpace=wrap;html=1;shadow=0;labelBackgroundColor=none;strokeColor=#d6b656;strokeWidth=3;fillColor=#fff2cc;fontFamily=Helvetica;fontSize=14;align=center;spacing=5;fontStyle=1;arcSize=7;perimeterSpacing=2;" parent="1" vertex="1">
          <mxGeometry x="520" y="910" width="150" height="60" as="geometry" />
        </mxCell>
        <mxCell id="1764" value="Virenscan Status Change Event" style="rounded=1;whiteSpace=wrap;html=1;shadow=0;labelBackgroundColor=none;strokeColor=#d6b656;strokeWidth=3;fillColor=#fff2cc;fontFamily=Helvetica;fontSize=14;align=center;spacing=5;fontStyle=1;arcSize=7;perimeterSpacing=2;" parent="1" vertex="1">
          <mxGeometry x="495" y="-10" width="150" height="60" as="geometry" />
        </mxCell>
        <mxCell id="XpKsgjcz_eqxMskUoxyx-1842" style="edgeStyle=orthogonalEdgeStyle;rounded=0;orthogonalLoop=1;jettySize=auto;html=1;elbow=vertical;curved=1;strokeColor=#7fe42d;exitX=1;exitY=0;exitDx=0;exitDy=0;strokeWidth=3;dashed=1;" edge="1" parent="1" source="1749">
          <mxGeometry relative="1" as="geometry">
            <mxPoint x="570" y="170" as="targetPoint" />
            <Array as="points">
              <mxPoint x="740" y="379" />
              <mxPoint x="740" y="340" />
              <mxPoint x="750" y="340" />
              <mxPoint x="750" y="170" />
            </Array>
          </mxGeometry>
        </mxCell>
        <mxCell id="XpKsgjcz_eqxMskUoxyx-1843" style="edgeStyle=orthogonalEdgeStyle;rounded=0;orthogonalLoop=1;jettySize=auto;html=1;curved=1;exitX=0;exitY=0;exitDx=0;exitDy=0;strokeColor=#70e60f;strokeWidth=3;dashed=1;" edge="1" parent="1">
          <mxGeometry relative="1" as="geometry">
            <mxPoint x="331.92" y="200" as="targetPoint" />
            <mxPoint x="494.92" y="391.5" as="sourcePoint" />
            <Array as="points">
              <mxPoint x="495" y="394" />
              <mxPoint x="482" y="394" />
              <mxPoint x="482" y="220" />
              <mxPoint x="460" y="220" />
              <mxPoint x="460" y="200" />
            </Array>
          </mxGeometry>
        </mxCell>
        <mxCell id="1771" value="Upload Event" style="rounded=1;whiteSpace=wrap;html=1;shadow=0;labelBackgroundColor=none;strokeColor=#d6b656;strokeWidth=3;fillColor=#fff2cc;fontFamily=Helvetica;fontSize=14;align=center;spacing=5;fontStyle=1;arcSize=7;perimeterSpacing=2;" parent="1" vertex="1">
          <mxGeometry x="795" y="385.4999999999999" width="150" height="60" as="geometry" />
        </mxCell>
        <mxCell id="XpKsgjcz_eqxMskUoxyx-1810" value="" style="edgeStyle=orthogonalEdgeStyle;rounded=0;orthogonalLoop=1;jettySize=auto;html=1;" edge="1" parent="1" source="XpKsgjcz_eqxMskUoxyx-1785" target="XpKsgjcz_eqxMskUoxyx-1809">
          <mxGeometry relative="1" as="geometry" />
        </mxCell>
        <mxCell id="XpKsgjcz_eqxMskUoxyx-1815" value="" style="edgeStyle=orthogonalEdgeStyle;rounded=0;orthogonalLoop=1;jettySize=auto;html=1;" edge="1" parent="1" source="XpKsgjcz_eqxMskUoxyx-1785" target="XpKsgjcz_eqxMskUoxyx-1814">
          <mxGeometry relative="1" as="geometry" />
        </mxCell>
        <mxCell id="XpKsgjcz_eqxMskUoxyx-1785" value="Date Change Trigger" style="shape=parallelogram;perimeter=parallelogramPerimeter;whiteSpace=wrap;html=1;fixedSize=1;fontSize=16;fillColor=#d5e8d4;strokeColor=#82b366;rounded=1;shadow=0;labelBackgroundColor=none;strokeWidth=3;fontStyle=1;spacing=5;arcSize=7;" vertex="1" parent="1">
          <mxGeometry x="495" y="535.5" width="150" height="84.5" as="geometry" />
        </mxCell>
        <mxCell id="XpKsgjcz_eqxMskUoxyx-1812" style="edgeStyle=orthogonalEdgeStyle;rounded=0;orthogonalLoop=1;jettySize=auto;html=1;entryX=0.5;entryY=0;entryDx=0;entryDy=0;fillColor=#e1d5e7;strokeColor=#9673a6;strokeWidth=3;" edge="1" parent="1" source="XpKsgjcz_eqxMskUoxyx-1807" target="1760">
          <mxGeometry relative="1" as="geometry" />
        </mxCell>
        <mxCell id="XpKsgjcz_eqxMskUoxyx-1807" value="Post Access" style="ellipse;whiteSpace=wrap;html=1;fontSize=16;fillColor=#e1d5e7;strokeColor=#9673a6;rounded=1;shadow=0;labelBackgroundColor=none;strokeWidth=3;fontStyle=1;spacing=5;arcSize=7;" vertex="1" parent="1">
          <mxGeometry x="555" y="709.01" width="80" height="80" as="geometry" />
        </mxCell>
        <mxCell id="XpKsgjcz_eqxMskUoxyx-1813" style="edgeStyle=orthogonalEdgeStyle;rounded=0;orthogonalLoop=1;jettySize=auto;html=1;entryX=1;entryY=0.406;entryDx=0;entryDy=0;entryPerimeter=0;exitX=0.5;exitY=1;exitDx=0;exitDy=0;fillColor=#e1d5e7;strokeColor=#9673a6;strokeWidth=3;" edge="1" parent="1" source="XpKsgjcz_eqxMskUoxyx-1809" target="1760">
          <mxGeometry relative="1" as="geometry">
            <mxPoint x="870" y="890" as="targetPoint" />
            <Array as="points">
              <mxPoint x="835" y="934" />
            </Array>
          </mxGeometry>
        </mxCell>
        <mxCell id="XpKsgjcz_eqxMskUoxyx-1809" value="Set Expiredate Api&lt;br&gt;&lt;i&gt;Internal/External&amp;nbsp;&lt;/i&gt;" style="ellipse;whiteSpace=wrap;html=1;fontSize=16;fillColor=#e1d5e7;strokeColor=#9673a6;rounded=1;shadow=0;labelBackgroundColor=none;strokeWidth=3;fontStyle=1;spacing=5;arcSize=7;" vertex="1" parent="1">
          <mxGeometry x="715" y="526.75" width="230" height="102.5" as="geometry" />
        </mxCell>
        <mxCell id="XpKsgjcz_eqxMskUoxyx-1817" value="&lt;font style=&quot;font-size: 13px;&quot;&gt;External&lt;/font&gt;" style="edgeStyle=orthogonalEdgeStyle;rounded=0;orthogonalLoop=1;jettySize=auto;html=1;entryX=0;entryY=0.5;entryDx=0;entryDy=0;" edge="1" parent="1" source="XpKsgjcz_eqxMskUoxyx-1814" target="XpKsgjcz_eqxMskUoxyx-1845">
          <mxGeometry relative="1" as="geometry">
            <mxPoint x="230" y="710" as="targetPoint" />
            <Array as="points">
              <mxPoint x="250" y="578" />
              <mxPoint x="250" y="860" />
            </Array>
          </mxGeometry>
        </mxCell>
        <mxCell id="XpKsgjcz_eqxMskUoxyx-1819" value="&lt;font style=&quot;font-size: 14px;&quot;&gt;Internal&lt;/font&gt;" style="edgeStyle=orthogonalEdgeStyle;rounded=0;orthogonalLoop=1;jettySize=auto;html=1;" edge="1" parent="1" source="XpKsgjcz_eqxMskUoxyx-1814" target="XpKsgjcz_eqxMskUoxyx-1818">
          <mxGeometry relative="1" as="geometry" />
        </mxCell>
        <mxCell id="XpKsgjcz_eqxMskUoxyx-1814" value="Internal / External" style="rhombus;whiteSpace=wrap;html=1;fontSize=16;fillColor=#d5e8d4;strokeColor=#82b366;rounded=1;shadow=0;labelBackgroundColor=none;strokeWidth=3;fontStyle=1;spacing=5;arcSize=7;" vertex="1" parent="1">
          <mxGeometry x="300" y="526.75" width="110" height="102.25" as="geometry" />
        </mxCell>
        <mxCell id="XpKsgjcz_eqxMskUoxyx-1846" value="&lt;font style=&quot;font-size: 13px;&quot;&gt;Yes&lt;/font&gt;" style="edgeStyle=orthogonalEdgeStyle;rounded=0;orthogonalLoop=1;jettySize=auto;html=1;" edge="1" parent="1" source="XpKsgjcz_eqxMskUoxyx-1818" target="XpKsgjcz_eqxMskUoxyx-1845">
          <mxGeometry relative="1" as="geometry" />
        </mxCell>
        <mxCell id="XpKsgjcz_eqxMskUoxyx-1818" value="Pre Access" style="rhombus;whiteSpace=wrap;html=1;fontSize=16;fillColor=#d5e8d4;strokeColor=#82b366;rounded=1;shadow=0;labelBackgroundColor=none;strokeWidth=3;fontStyle=1;spacing=5;arcSize=7;" vertex="1" parent="1">
          <mxGeometry x="308" y="710.01" width="95" height="90" as="geometry" />
        </mxCell>
        <mxCell id="XpKsgjcz_eqxMskUoxyx-1821" value="&lt;font style=&quot;font-size: 13px;&quot;&gt;No&lt;/font&gt;" style="edgeStyle=orthogonalEdgeStyle;rounded=0;orthogonalLoop=1;jettySize=auto;html=1;entryX=-0.012;entryY=0.588;entryDx=0;entryDy=0;entryPerimeter=0;" edge="1" parent="1" source="XpKsgjcz_eqxMskUoxyx-1818" target="XpKsgjcz_eqxMskUoxyx-1807">
          <mxGeometry relative="1" as="geometry" />
        </mxCell>
        <mxCell id="XpKsgjcz_eqxMskUoxyx-1836" value="&lt;font style=&quot;font-size: 14px;&quot;&gt;ReadyForScan -- ScanSuccessful&lt;/font&gt;" style="edgeStyle=orthogonalEdgeStyle;rounded=0;orthogonalLoop=1;jettySize=auto;html=1;entryX=0.5;entryY=1;entryDx=0;entryDy=0;fillColor=#e1d5e7;strokeColor=#9673a6;strokeWidth=3;" edge="1" parent="1" source="XpKsgjcz_eqxMskUoxyx-1830" target="1764">
          <mxGeometry relative="1" as="geometry" />
        </mxCell>
        <mxCell id="XpKsgjcz_eqxMskUoxyx-1837" style="edgeStyle=orthogonalEdgeStyle;rounded=0;orthogonalLoop=1;jettySize=auto;html=1;entryX=0;entryY=0.5;entryDx=0;entryDy=0;fillColor=#e1d5e7;strokeColor=#9673a6;strokeWidth=3;" edge="1" parent="1" source="XpKsgjcz_eqxMskUoxyx-1830" target="1764">
          <mxGeometry relative="1" as="geometry">
            <Array as="points">
              <mxPoint x="330" y="278" />
              <mxPoint x="330" y="20" />
            </Array>
          </mxGeometry>
        </mxCell>
        <mxCell id="XpKsgjcz_eqxMskUoxyx-1838" value="&lt;font style=&quot;font-size: 14px;&quot;&gt;ReadyForScan -- ScanFailure&lt;/font&gt;" style="edgeLabel;html=1;align=center;verticalAlign=middle;resizable=0;points=[];" vertex="1" connectable="0" parent="XpKsgjcz_eqxMskUoxyx-1837">
          <mxGeometry x="-0.0461" relative="1" as="geometry">
            <mxPoint as="offset" />
          </mxGeometry>
        </mxCell>
        <mxCell id="XpKsgjcz_eqxMskUoxyx-1857" value="Scan Error" style="edgeStyle=orthogonalEdgeStyle;rounded=0;orthogonalLoop=1;jettySize=auto;html=1;entryX=0;entryY=0.5;entryDx=0;entryDy=0;" edge="1" parent="1" source="XpKsgjcz_eqxMskUoxyx-1830" target="XpKsgjcz_eqxMskUoxyx-1832">
          <mxGeometry relative="1" as="geometry" />
        </mxCell>
        <mxCell id="XpKsgjcz_eqxMskUoxyx-1830" value="Status Change Trigger" style="shape=parallelogram;perimeter=parallelogramPerimeter;whiteSpace=wrap;html=1;fixedSize=1;fontSize=16;fillColor=#d5e8d4;strokeColor=#82b366;rounded=1;shadow=0;labelBackgroundColor=none;strokeWidth=3;fontStyle=1;spacing=5;arcSize=7;" vertex="1" parent="1">
          <mxGeometry x="490" y="235.5" width="160" height="84.5" as="geometry" />
        </mxCell>
        <mxCell id="XpKsgjcz_eqxMskUoxyx-1834" value="&lt;font style=&quot;font-size: 14px;&quot;&gt;ScanError -- ScanSuccessful&lt;/font&gt;" style="edgeStyle=orthogonalEdgeStyle;rounded=0;orthogonalLoop=1;jettySize=auto;html=1;entryX=1;entryY=0.5;entryDx=0;entryDy=0;fillColor=#e1d5e7;strokeColor=#9673a6;strokeWidth=3;" edge="1" parent="1" source="XpKsgjcz_eqxMskUoxyx-1832" target="1764">
          <mxGeometry relative="1" as="geometry">
            <Array as="points">
              <mxPoint x="860" y="278" />
              <mxPoint x="860" y="20" />
            </Array>
          </mxGeometry>
        </mxCell>
        <mxCell id="XpKsgjcz_eqxMskUoxyx-1832" value="Rescan API" style="ellipse;whiteSpace=wrap;html=1;fontSize=16;fillColor=#e1d5e7;strokeColor=#9673a6;rounded=1;shadow=0;labelBackgroundColor=none;strokeWidth=3;fontStyle=1;spacing=5;arcSize=7;" vertex="1" parent="1">
          <mxGeometry x="800" y="237.75" width="80" height="80" as="geometry" />
        </mxCell>
        <mxCell id="XpKsgjcz_eqxMskUoxyx-1852" value="&lt;font style=&quot;font-size: 13px;&quot;&gt;Yes&lt;/font&gt;" style="edgeStyle=orthogonalEdgeStyle;rounded=0;orthogonalLoop=1;jettySize=auto;html=1;entryX=0;entryY=0.25;entryDx=0;entryDy=0;exitX=0.5;exitY=1;exitDx=0;exitDy=0;fillColor=#e1d5e7;strokeColor=#9673a6;strokeWidth=3;" edge="1" parent="1" source="XpKsgjcz_eqxMskUoxyx-1845">
          <mxGeometry relative="1" as="geometry">
            <mxPoint x="329.47631578947374" y="890.0036842105262" as="sourcePoint" />
            <mxPoint x="519.9999999999998" y="923.9999999999995" as="targetPoint" />
            <Array as="points">
              <mxPoint x="356" y="924" />
            </Array>
          </mxGeometry>
        </mxCell>
        <mxCell id="XpKsgjcz_eqxMskUoxyx-1845" value="First Access" style="rhombus;whiteSpace=wrap;html=1;fontSize=16;fillColor=#e1d5e7;strokeColor=#9673a6;rounded=1;shadow=0;labelBackgroundColor=none;strokeWidth=3;fontStyle=1;spacing=5;arcSize=7;" vertex="1" parent="1">
          <mxGeometry x="315.5" y="820" width="80" height="80" as="geometry" />
        </mxCell>
        <mxCell id="XpKsgjcz_eqxMskUoxyx-1850" value="&lt;font style=&quot;font-size: 13px;&quot;&gt;No&lt;/font&gt;" style="edgeStyle=orthogonalEdgeStyle;rounded=0;orthogonalLoop=1;jettySize=auto;html=1;entryX=-0.016;entryY=0.707;entryDx=0;entryDy=0;entryPerimeter=0;" edge="1" parent="1" source="XpKsgjcz_eqxMskUoxyx-1845" target="XpKsgjcz_eqxMskUoxyx-1807">
          <mxGeometry relative="1" as="geometry" />
        </mxCell>
        <mxCell id="XpKsgjcz_eqxMskUoxyx-1854" style="edgeStyle=orthogonalEdgeStyle;rounded=0;orthogonalLoop=1;jettySize=auto;html=1;exitX=0;exitY=1;exitDx=0;exitDy=0;curved=1;strokeColor=#acee75;strokeWidth=3;dashed=1;" edge="1" parent="1" source="1749">
          <mxGeometry relative="1" as="geometry">
            <mxPoint x="250" y="740" as="targetPoint" />
            <Array as="points">
              <mxPoint x="150" y="453" />
              <mxPoint x="150" y="710" />
              <mxPoint x="180" y="710" />
              <mxPoint x="180" y="740" />
            </Array>
          </mxGeometry>
        </mxCell>
        <mxCell id="XpKsgjcz_eqxMskUoxyx-1855" style="edgeStyle=orthogonalEdgeStyle;rounded=0;orthogonalLoop=1;jettySize=auto;html=1;exitX=0.25;exitY=1;exitDx=0;exitDy=0;entryX=0.938;entryY=0.28;entryDx=0;entryDy=0;entryPerimeter=0;curved=1;strokeColor=#acee75;strokeWidth=3;dashed=1;" edge="1" parent="1" source="1749" target="XpKsgjcz_eqxMskUoxyx-1845">
          <mxGeometry relative="1" as="geometry">
            <mxPoint x="803" y="458" as="sourcePoint" />
            <mxPoint x="228" y="725" as="targetPoint" />
          </mxGeometry>
        </mxCell>
        <mxCell id="XpKsgjcz_eqxMskUoxyx-1856" style="edgeStyle=orthogonalEdgeStyle;rounded=0;orthogonalLoop=1;jettySize=auto;html=1;exitX=1;exitY=1;exitDx=0;exitDy=0;entryX=0.5;entryY=0;entryDx=0;entryDy=0;curved=1;strokeColor=#acee75;strokeWidth=3;dashed=1;" edge="1" parent="1" source="1749" target="XpKsgjcz_eqxMskUoxyx-1807">
          <mxGeometry relative="1" as="geometry">
            <mxPoint x="813" y="468" as="sourcePoint" />
            <mxPoint x="238" y="735" as="targetPoint" />
            <Array as="points">
              <mxPoint x="647" y="709" />
            </Array>
          </mxGeometry>
        </mxCell>
      </root>
    </mxGraphModel>
  </diagram>
</mxfile>
